<svg width="403" height="80" viewBox="0 0 403 80" fill="none" xmlns="http://www.w3.org/2000/svg">
<rect width="80" height="80" rx="10" fill="#855DCD"/>
<path d="M69.9497 53.5457H65.2078V69.9974H69.9497V53.5457Z" fill="white"/>
<path d="M60.4659 45.3199H55.7239V69.9974H60.4659V45.3199Z" fill="white"/>
<path d="M50.982 61.7715H46.2401V69.9974H50.982V61.7715Z" fill="white"/>
<path d="M23.7903 9.80029C21.0629 9.80029 18.3966 10.6091 16.1288 12.1244C13.861 13.6397 12.0935 15.7934 11.0497 18.3133C10.006 20.8331 9.73288 23.6059 10.265 26.281C10.7971 28.956 12.1105 31.4132 14.0391 33.3418C15.9677 35.2704 18.4249 36.5838 21.1 37.1159C23.775 37.648 26.5478 37.375 29.0676 36.3312C31.5875 35.2874 33.7412 33.5199 35.2565 31.2521C36.7718 28.9843 37.5806 26.3181 37.5806 23.5906C37.5766 19.9344 36.1224 16.4292 33.537 13.8439C30.9517 11.2586 27.4465 9.80436 23.7903 9.80029ZM33.4414 21.6206H25.7604V13.9396C27.6511 14.3293 29.3863 15.2645 30.7514 16.6296C32.1164 17.9947 33.0516 19.7298 33.4414 21.6206ZM23.7903 33.4408C21.3494 33.4406 18.9955 32.5342 17.1849 30.8972C15.3744 29.2602 14.2361 27.0092 13.9907 24.5807C13.7454 22.1521 14.4105 19.719 15.8571 17.7529C17.3037 15.7869 19.4287 14.4279 21.8203 13.9396V21.6206C21.8203 22.6655 22.2354 23.6677 22.9743 24.4066C23.7132 25.1455 24.7154 25.5607 25.7604 25.5607H33.4414C32.9845 27.7838 31.7751 29.7815 30.0171 31.2169C28.2591 32.6524 26.0599 33.4378 23.7903 33.4408Z" fill="white"/>
<path d="M14.9819 43.4H33.7068V70.0272H30.9582V57.8303H30.9312C30.6274 54.4593 27.7944 51.8177 24.3443 51.8177C20.8943 51.8177 18.0612 54.4593 17.7574 57.8303H17.7305V70.0272H14.9819V43.4Z" fill="white"/>
<path d="M10 47.1794L11.1166 50.9587H12.0615V66.2479C11.5871 66.2479 11.2025 66.6324 11.2025 67.1068V68.1376H11.0307C10.5563 68.1376 10.1718 68.5221 10.1718 68.9965V70.0272H19.7919V68.9965C19.7919 68.5221 19.4074 68.1376 18.933 68.1376H18.7612V67.1068C18.7612 66.6324 18.3766 66.2479 17.9023 66.2479H16.8715V47.1794H10Z" fill="white"/>
<path d="M31.13 66.2479C30.6556 66.2479 30.271 66.6324 30.271 67.1068V68.1376H30.0992C29.6249 68.1376 29.2403 68.5221 29.2403 68.9965V70.0272H38.8605V68.9965C38.8605 68.5221 38.4759 68.1376 38.0015 68.1376H37.8297V67.1068C37.8297 66.6324 37.4452 66.2479 36.9708 66.2479V50.9587H37.9156L39.0322 47.1794H32.1607V66.2479H31.13Z" fill="white"/>
<path d="M55.81 28.8092L63.4137 17.4037H70V13.6019H61.3789L53.7752 25.0074H47.1889V9.80005H43.3871V32.6111C43.3871 33.6194 43.7876 34.5864 44.5006 35.2994C45.2136 36.0124 46.1806 36.4129 47.1889 36.4129H70V32.6111H47.1889V28.8092H55.81Z" fill="white"/>
<path d="M113.574 30.8182V34.9091H98.7784V30.8182H113.574ZM102.835 57V27.7841C102.835 26.1477 103.193 24.7898 103.909 23.7102C104.625 22.6193 105.574 21.8068 106.756 21.2727C107.938 20.7273 109.222 20.4545 110.608 20.4545C111.631 20.4545 112.506 20.5398 113.233 20.7102C113.96 20.8693 114.5 21.017 114.852 21.1534L113.659 25.2784C113.42 25.2102 113.114 25.1307 112.739 25.0398C112.364 24.9375 111.909 24.8864 111.375 24.8864C110.136 24.8864 109.25 25.1932 108.716 25.8068C108.193 26.4205 107.932 27.3068 107.932 28.4659V57H102.835ZM118.832 57V30.8182H123.759V34.9773H124.031C124.509 33.5682 125.349 32.4602 126.554 31.6534C127.77 30.8352 129.145 30.4261 130.679 30.4261C130.997 30.4261 131.372 30.4375 131.804 30.4602C132.247 30.483 132.594 30.5114 132.844 30.5455V35.4205C132.639 35.3636 132.276 35.3011 131.753 35.233C131.23 35.1534 130.707 35.1136 130.185 35.1136C128.98 35.1136 127.906 35.3693 126.963 35.8807C126.031 36.3807 125.293 37.0795 124.747 37.9773C124.202 38.8636 123.929 39.875 123.929 41.0114V57H118.832ZM144.639 57.5795C142.98 57.5795 141.48 57.2727 140.139 56.6591C138.798 56.0341 137.736 55.1307 136.952 53.9489C136.179 52.767 135.793 51.3182 135.793 49.6023C135.793 48.125 136.077 46.9091 136.645 45.9545C137.213 45 137.98 44.2443 138.946 43.6875C139.912 43.1307 140.991 42.7102 142.185 42.4261C143.378 42.142 144.594 41.9261 145.832 41.7784C147.401 41.5966 148.673 41.4489 149.651 41.3352C150.628 41.2102 151.338 41.0114 151.781 40.7386C152.224 40.4659 152.446 40.0227 152.446 39.4091V39.2898C152.446 37.8011 152.026 36.6477 151.185 35.8295C150.355 35.0114 149.116 34.6023 147.469 34.6023C145.753 34.6023 144.401 34.983 143.412 35.7443C142.435 36.4943 141.759 37.3295 141.384 38.25L136.594 37.1591C137.162 35.5682 137.991 34.2841 139.082 33.3068C140.185 32.3182 141.452 31.6023 142.884 31.1591C144.315 30.7045 145.821 30.4773 147.401 30.4773C148.446 30.4773 149.554 30.6023 150.724 30.8523C151.906 31.0909 153.009 31.5341 154.031 32.1818C155.065 32.8295 155.912 33.7557 156.571 34.9602C157.23 36.1534 157.56 37.7045 157.56 39.6136V57H152.582V53.4205H152.378C152.048 54.0795 151.554 54.7273 150.895 55.3636C150.236 56 149.389 56.5284 148.355 56.9489C147.321 57.3693 146.082 57.5795 144.639 57.5795ZM145.747 53.4886C147.156 53.4886 148.361 53.2102 149.361 52.6534C150.372 52.0966 151.139 51.3693 151.662 50.4716C152.196 49.5625 152.463 48.5909 152.463 47.5568V44.1818C152.281 44.3636 151.929 44.5341 151.406 44.6932C150.895 44.8409 150.31 44.9716 149.651 45.0852C148.991 45.1875 148.349 45.2841 147.724 45.375C147.099 45.4545 146.577 45.5227 146.156 45.5795C145.168 45.7045 144.264 45.9148 143.446 46.2102C142.639 46.5057 141.991 46.9318 141.503 47.4886C141.026 48.0341 140.787 48.7614 140.787 49.6705C140.787 50.9318 141.253 51.8864 142.185 52.5341C143.116 53.1705 144.304 53.4886 145.747 53.4886ZM164.348 57V30.8182H169.24V35.0795H169.564C170.109 33.6364 171.001 32.5114 172.24 31.7045C173.479 30.8864 174.962 30.4773 176.689 30.4773C178.439 30.4773 179.905 30.8864 181.087 31.7045C182.28 32.5227 183.161 33.6477 183.729 35.0795H184.001C184.626 33.6818 185.621 32.5682 186.984 31.7386C188.348 30.8977 189.973 30.4773 191.859 30.4773C194.234 30.4773 196.172 31.2216 197.672 32.7102C199.183 34.1989 199.939 36.4432 199.939 39.4432V57H194.842V39.9205C194.842 38.1477 194.359 36.8636 193.393 36.0682C192.428 35.2727 191.274 34.875 189.933 34.875C188.274 34.875 186.984 35.3864 186.064 36.4091C185.143 37.4205 184.683 38.7216 184.683 40.3125V57H179.604V39.5966C179.604 38.1761 179.161 37.0341 178.274 36.1705C177.388 35.3068 176.234 34.875 174.814 34.875C173.848 34.875 172.956 35.1307 172.138 35.642C171.331 36.142 170.678 36.8409 170.178 37.7386C169.689 38.6364 169.445 39.6761 169.445 40.858V57H164.348ZM218.054 57.5284C215.474 57.5284 213.253 56.9773 211.389 55.875C209.537 54.7614 208.105 53.1989 207.094 51.1875C206.094 49.1648 205.594 46.7955 205.594 44.0795C205.594 41.3977 206.094 39.0341 207.094 36.9886C208.105 34.9432 209.514 33.3466 211.321 32.1989C213.139 31.0511 215.264 30.4773 217.696 30.4773C219.173 30.4773 220.605 30.7216 221.991 31.2102C223.378 31.6989 224.622 32.4659 225.724 33.5114C226.827 34.5568 227.696 35.9148 228.332 37.5852C228.969 39.2443 229.287 41.2614 229.287 43.6364V45.4432H208.474V41.625H224.293C224.293 40.2841 224.02 39.0966 223.474 38.0625C222.929 37.017 222.162 36.1932 221.173 35.5909C220.196 34.9886 219.048 34.6875 217.73 34.6875C216.298 34.6875 215.048 35.0398 213.98 35.7443C212.923 36.4375 212.105 37.3466 211.526 38.4716C210.957 39.5852 210.673 40.7955 210.673 42.1023V45.0852C210.673 46.8352 210.98 48.3239 211.594 49.5511C212.219 50.7784 213.088 51.7159 214.202 52.3636C215.315 53 216.616 53.3182 218.105 53.3182C219.071 53.3182 219.952 53.1818 220.747 52.9091C221.543 52.625 222.23 52.2045 222.81 51.6477C223.389 51.0909 223.832 50.4034 224.139 49.5852L228.963 50.4545C228.577 51.875 227.884 53.1193 226.884 54.1875C225.895 55.2443 224.651 56.0682 223.151 56.6591C221.662 57.2386 219.963 57.5284 218.054 57.5284ZM250.368 40.0398V44.4545H234.891V40.0398H250.368ZM268.189 57.5284C265.655 57.5284 263.473 56.9545 261.643 55.8068C259.825 54.6477 258.428 53.0511 257.45 51.017C256.473 48.983 255.984 46.6534 255.984 44.0284C255.984 41.3693 256.484 39.0227 257.484 36.9886C258.484 34.9432 259.893 33.3466 261.712 32.1989C263.53 31.0511 265.672 30.4773 268.138 30.4773C270.126 30.4773 271.899 30.8466 273.456 31.5852C275.013 32.3125 276.268 33.3352 277.223 34.6534C278.189 35.9716 278.763 37.5114 278.945 39.2727H273.984C273.712 38.0455 273.087 36.9886 272.109 36.1023C271.143 35.2159 269.848 34.7727 268.223 34.7727C266.803 34.7727 265.558 35.1477 264.49 35.8977C263.433 36.6364 262.609 37.6932 262.018 39.0682C261.428 40.4318 261.132 42.0455 261.132 43.9091C261.132 45.8182 261.422 47.4659 262.001 48.8523C262.581 50.2386 263.399 51.3125 264.456 52.0739C265.524 52.8352 266.78 53.2159 268.223 53.2159C269.189 53.2159 270.064 53.0398 270.848 52.6875C271.643 52.3239 272.308 51.8068 272.842 51.1364C273.388 50.4659 273.768 49.6591 273.984 48.7159H278.945C278.763 50.4091 278.212 51.9205 277.291 53.25C276.371 54.5795 275.138 55.625 273.592 56.3864C272.058 57.1477 270.257 57.5284 268.189 57.5284ZM289.491 41.4545V57H284.395V22.0909H289.423V35.0795H289.747C290.361 33.6705 291.298 32.5511 292.56 31.7216C293.821 30.892 295.469 30.4773 297.503 30.4773C299.298 30.4773 300.866 30.8466 302.207 31.5852C303.56 32.3239 304.605 33.4261 305.344 34.892C306.094 36.3466 306.469 38.1648 306.469 40.3466V57H301.372V40.9602C301.372 39.0398 300.878 37.5511 299.889 36.4943C298.901 35.4261 297.526 34.892 295.764 34.892C294.56 34.892 293.48 35.1477 292.526 35.6591C291.582 36.1705 290.838 36.9205 290.293 37.9091C289.759 38.8864 289.491 40.0682 289.491 41.4545ZM320.889 57.5795C319.23 57.5795 317.73 57.2727 316.389 56.6591C315.048 56.0341 313.986 55.1307 313.202 53.9489C312.429 52.767 312.043 51.3182 312.043 49.6023C312.043 48.125 312.327 46.9091 312.895 45.9545C313.463 45 314.23 44.2443 315.196 43.6875C316.162 43.1307 317.241 42.7102 318.435 42.4261C319.628 42.142 320.844 41.9261 322.082 41.7784C323.651 41.5966 324.923 41.4489 325.901 41.3352C326.878 41.2102 327.588 41.0114 328.031 40.7386C328.474 40.4659 328.696 40.0227 328.696 39.4091V39.2898C328.696 37.8011 328.276 36.6477 327.435 35.8295C326.605 35.0114 325.366 34.6023 323.719 34.6023C322.003 34.6023 320.651 34.983 319.662 35.7443C318.685 36.4943 318.009 37.3295 317.634 38.25L312.844 37.1591C313.412 35.5682 314.241 34.2841 315.332 33.3068C316.435 32.3182 317.702 31.6023 319.134 31.1591C320.565 30.7045 322.071 30.4773 323.651 30.4773C324.696 30.4773 325.804 30.6023 326.974 30.8523C328.156 31.0909 329.259 31.5341 330.281 32.1818C331.315 32.8295 332.162 33.7557 332.821 34.9602C333.48 36.1534 333.81 37.7045 333.81 39.6136V57H328.832V53.4205H328.628C328.298 54.0795 327.804 54.7273 327.145 55.3636C326.486 56 325.639 56.5284 324.605 56.9489C323.571 57.3693 322.332 57.5795 320.889 57.5795ZM321.997 53.4886C323.406 53.4886 324.611 53.2102 325.611 52.6534C326.622 52.0966 327.389 51.3693 327.912 50.4716C328.446 49.5625 328.713 48.5909 328.713 47.5568V44.1818C328.531 44.3636 328.179 44.5341 327.656 44.6932C327.145 44.8409 326.56 44.9716 325.901 45.0852C325.241 45.1875 324.599 45.2841 323.974 45.375C323.349 45.4545 322.827 45.5227 322.406 45.5795C321.418 45.7045 320.514 45.9148 319.696 46.2102C318.889 46.5057 318.241 46.9318 317.753 47.4886C317.276 48.0341 317.037 48.7614 317.037 49.6705C317.037 50.9318 317.503 51.8864 318.435 52.5341C319.366 53.1705 320.554 53.4886 321.997 53.4886ZM340.598 57V30.8182H345.524V34.9773H345.797C346.274 33.5682 347.115 32.4602 348.32 31.6534C349.536 30.8352 350.911 30.4261 352.445 30.4261C352.763 30.4261 353.138 30.4375 353.57 30.4602C354.013 30.483 354.359 30.5114 354.609 30.5455V35.4205C354.405 35.3636 354.041 35.3011 353.518 35.233C352.996 35.1534 352.473 35.1136 351.95 35.1136C350.746 35.1136 349.672 35.3693 348.729 35.8807C347.797 36.3807 347.058 37.0795 346.513 37.9773C345.967 38.8636 345.695 39.875 345.695 41.0114V57H340.598ZM372.788 30.8182V34.9091H358.487V30.8182H372.788ZM362.322 24.5455H367.419V49.3125C367.419 50.3011 367.567 51.0455 367.862 51.5455C368.158 52.0341 368.538 52.3693 369.004 52.5511C369.482 52.7216 369.999 52.8068 370.555 52.8068C370.964 52.8068 371.322 52.7784 371.629 52.7216C371.936 52.6648 372.175 52.6193 372.345 52.5852L373.266 56.7955C372.97 56.9091 372.55 57.0227 372.004 57.1364C371.459 57.2614 370.777 57.3295 369.959 57.3409C368.618 57.3636 367.368 57.125 366.209 56.625C365.05 56.125 364.112 55.3523 363.396 54.3068C362.68 53.2614 362.322 51.9489 362.322 50.3693V24.5455ZM397.624 37.2102L393.004 38.0284C392.811 37.4375 392.504 36.875 392.084 36.3409C391.675 35.8068 391.118 35.3693 390.413 35.0284C389.709 34.6875 388.828 34.517 387.771 34.517C386.328 34.517 385.124 34.8409 384.158 35.4886C383.192 36.125 382.709 36.9489 382.709 37.9602C382.709 38.8352 383.033 39.5398 383.68 40.0739C384.328 40.608 385.374 41.0455 386.817 41.3864L390.976 42.3409C393.385 42.8977 395.18 43.7557 396.362 44.9148C397.544 46.0739 398.135 47.5795 398.135 49.4318C398.135 51 397.68 52.3977 396.771 53.625C395.874 54.8409 394.618 55.7955 393.004 56.4886C391.402 57.1818 389.544 57.5284 387.43 57.5284C384.499 57.5284 382.107 56.9034 380.254 55.6534C378.402 54.392 377.266 52.6023 376.845 50.2841L381.771 49.5341C382.078 50.8182 382.709 51.7898 383.663 52.4489C384.618 53.0966 385.862 53.4205 387.396 53.4205C389.067 53.4205 390.402 53.0739 391.402 52.3807C392.402 51.6761 392.902 50.8182 392.902 49.8068C392.902 48.9886 392.595 48.3011 391.982 47.7443C391.379 47.1875 390.453 46.767 389.203 46.483L384.771 45.5114C382.328 44.9545 380.521 44.0682 379.351 42.8523C378.192 41.6364 377.612 40.0966 377.612 38.233C377.612 36.6875 378.044 35.3352 378.908 34.1761C379.771 33.017 380.964 32.1136 382.487 31.4659C384.01 30.8068 385.754 30.4773 387.72 30.4773C390.55 30.4773 392.777 31.0909 394.402 32.3182C396.027 33.5341 397.101 35.1648 397.624 37.2102Z" fill="white"/>
</svg>
